<?xml version="1.0" encoding="utf-8"?>
<!-- Generator: Adobe Illustrator 16.0.0, SVG Export Plug-In . SVG Version: 6.00 Build 0)  -->
<!DOCTYPE svg PUBLIC "-//W3C//DTD SVG 1.1//EN" "http://www.w3.org/Graphics/SVG/1.1/DTD/svg11.dtd">
<svg version="1.1" xmlns="http://www.w3.org/2000/svg" xmlns:xlink="http://www.w3.org/1999/xlink" x="0px" y="0px"
	 width="373.586px" height="98.978px" viewBox="0 0 373.586 98.978" enable-background="new 0 0 373.586 98.978"
	 xml:space="preserve">
<g id="圖層_1">
</g>
<g id="紅球">
</g>
<g id="紅線背景">
</g>
<g id="圖層_2">
</g>
<g id="圖層_5">
	<g>
		<g>
			<path fill="#E42483" d="M273.768,57.933c-0.204-0.037-0.416-0.014-0.619,0.01c-0.011,0.148-0.021,0.301-0.038,0.445
				c0.222,0.018,0.438,0.033,0.657-0.006l1.818-0.193V58.13L273.768,57.933z"/>
			<path fill="#E42483" d="M273.536,59.847c-0.336-0.08-0.674-0.066-1.009-0.015c-0.004,0.212-0.008,0.421-0.014,0.632
				c0.343,0.053,0.681,0.055,1.022-0.023l1.878-0.262v-0.076L273.536,59.847z"/>
			<path fill="#E42483" d="M273.332,61.832c-0.381-0.079-0.767-0.088-1.149-0.036c0.003,0.225,0.013,0.444,0.013,0.668
				c0.377,0.053,0.759,0.039,1.137-0.033l2.082-0.266v-0.074L273.332,61.832z"/>
			<path fill="#E42483" d="M272.918,63.817c-0.324-0.068-0.652-0.104-0.975-0.068c-0.008,0.242-0.012,0.488-0.021,0.73
				c0.329,0.037,0.662,0.004,0.995-0.072l1.968-0.258v-0.074L272.918,63.817z"/>
			<path fill="#E42483" d="M272.524,65.804c-0.229-0.055-0.451-0.061-0.676-0.055c-0.017,0.242-0.039,0.473-0.06,0.709
				c0.246,0.016,0.491,0,0.735-0.063l1.754-0.256v-0.076L272.524,65.804z"/>
			<path fill="#E42483" d="M271.77,68.405c-0.148-0.035-0.301-0.014-0.449,0.008c-0.01,0.149-0.018,0.303-0.03,0.447
				c0.162,0.018,0.321,0.031,0.479-0.008l1.326-0.193v-0.057L271.77,68.405z"/>
			<path fill="#E42483" d="M271.452,70.566c-0.335-0.081-0.675-0.069-1.012-0.017c-0.002,0.211-0.005,0.422-0.012,0.635
				c0.343,0.049,0.681,0.055,1.023-0.023l1.877-0.262v-0.076L271.452,70.566z"/>
			<path fill="#E42483" d="M271.248,72.55c-0.382-0.078-0.768-0.086-1.149-0.035c0.002,0.225,0.011,0.445,0.011,0.67
				c0.38,0.051,0.76,0.037,1.139-0.037l2.081-0.262v-0.074L271.248,72.55z"/>
			<path fill="#E42483" d="M270.834,74.536c-0.324-0.064-0.652-0.102-0.976-0.064c-0.009,0.238-0.011,0.49-0.021,0.729
				c0.33,0.035,0.662,0.006,0.996-0.072l1.967-0.258v-0.075L270.834,74.536z"/>
			<path fill="#E42483" d="M270.439,76.522c-0.227-0.055-0.451-0.063-0.677-0.055c-0.017,0.244-0.038,0.473-0.059,0.709
				c0.246,0.014,0.49,0,0.735-0.062l1.756-0.256V76.78L270.439,76.522z"/>
			<path fill="#E42483" d="M269.5,79.28c-0.245-0.033-0.493-0.014-0.739,0.01c-0.011,0.15-0.026,0.303-0.044,0.449
				c0.263,0.014,0.523,0.029,0.783-0.009l2.168-0.194v-0.058L269.5,79.28z"/>
			<path fill="#E42483" d="M269.123,81.195c-0.337-0.08-0.675-0.069-1.011-0.014c-0.002,0.21-0.005,0.419-0.011,0.631
				c0.342,0.048,0.68,0.052,1.021-0.022L271,81.529v-0.077L269.123,81.195z"/>
			<path fill="#E42483" d="M268.92,83.177c-0.382-0.076-0.769-0.084-1.151-0.033c0.003,0.225,0.013,0.443,0.013,0.67
				c0.379,0.05,0.759,0.036,1.139-0.04l2.08-0.26V83.44L268.92,83.177z"/>
			<path fill="#E42483" d="M268.505,85.165c-0.323-0.07-0.651-0.102-0.976-0.07c-0.009,0.248-0.011,0.496-0.02,0.732
				c0.33,0.036,0.661,0.008,0.995-0.07l1.967-0.257v-0.077L268.505,85.165z"/>
			<path fill="#E42483" d="M268.282,87.159c-0.284-0.044-0.563-0.044-0.847-0.029c-0.013,0.24-0.029,0.475-0.053,0.711
				c0.307,0,0.612-0.016,0.917-0.088l2.172-0.314v-0.08L268.282,87.159z"/>
			<path fill="#E42483" d="M267.675,89.982c-0.244-0.038-0.496-0.017-0.743,0.007c-0.016,0.15-0.027,0.303-0.047,0.449
				c0.265,0.016,0.528,0.031,0.79-0.009l2.188-0.194v-0.059L267.675,89.982z"/>
			<g>
				<path fill="#E42483" d="M270.771,94.586c-0.262,0-0.513-0.121-0.677-0.332c-0.146-0.186-1.493-1.785-3.187-0.611
					c-0.287,0.199-0.661,0.206-0.951,0.018c-0.293-0.19-0.444-0.533-0.379-0.875l10.212-56.299
					c0.019-0.105,2.101-10.613,17.05-7.895c0.47,0.082,0.777,0.531,0.692,0.99c-0.084,0.473-0.53,0.783-0.997,0.697
					c-13.283-2.408-14.992,6.146-15.059,6.515l-9.93,54.749c1.014-0.176,1.93,0.109,2.65,0.553l9.935-54.77
					c0.012-0.07,0.329-1.73,2.062-3.086c2.184-1.707,5.506-2.172,9.872-1.373c0.467,0.08,0.774,0.527,0.69,0.992
					c-0.086,0.469-0.523,0.777-0.997,0.693c-8.876-1.615-9.903,2.895-9.938,3.088L271.616,93.88
					c-0.059,0.334-0.311,0.603-0.64,0.682C270.905,94.58,270.839,94.586,270.771,94.586"/>
				<path fill="#E42483" d="M294.976,98.978c-0.279,0-0.546-0.139-0.71-0.377c-0.211-0.305-1.377-1.791-3.149-0.564
					c-0.283,0.197-0.659,0.201-0.952,0.014c-0.291-0.187-0.439-0.533-0.379-0.869l10.199-56.25c0.029-0.188,0.646-4.767-8.226-6.377
					c-0.465-0.086-0.774-0.533-0.686-1c0.079-0.467,0.529-0.773,0.993-0.688c4.367,0.787,7.312,2.391,8.755,4.758
					c1.146,1.873,0.859,3.543,0.848,3.609l-9.911,54.672c0.439-0.091,0.882-0.093,1.327-0.012c0.513,0.098,0.959,0.299,1.331,0.536
					l9.924-54.76c0.063-0.361,1.398-8.992-11.805-11.389c-0.465-0.085-0.776-0.531-0.692-0.998c0.087-0.463,0.532-0.776,0.999-0.69
					c14.943,2.713,13.204,13.277,13.187,13.383l-10.207,56.299c-0.061,0.338-0.328,0.613-0.664,0.686
					C295.098,98.974,295.037,98.978,294.976,98.978"/>
				<path fill="#E42483" d="M275.174,92.792c-0.05,0-0.104-0.006-0.154-0.013c-0.465-0.086-0.773-0.531-0.692-0.999l9.241-50.939
					c0.087-0.467,0.534-0.777,0.998-0.693c0.467,0.088,0.776,0.537,0.693,0.999l-9.243,50.943
					C275.941,92.501,275.583,92.792,275.174,92.792"/>
				<path fill="#E42483" d="M279.163,93.513c-0.053,0-0.103-0.002-0.154-0.012c-0.465-0.085-0.773-0.533-0.691-0.998l9.241-50.941
					c0.085-0.465,0.533-0.776,0.996-0.692c0.463,0.088,0.774,0.533,0.693,1l-9.241,50.939
					C279.932,93.224,279.569,93.513,279.163,93.513"/>
				<path fill="#E42483" d="M283.149,94.237c-0.052,0-0.102-0.004-0.155-0.012c-0.465-0.086-0.774-0.533-0.689-0.998l9.238-50.938
					c0.09-0.469,0.534-0.779,0.997-0.695c0.468,0.086,0.776,0.535,0.692,0.998l-9.237,50.939
					C283.919,93.948,283.557,94.237,283.149,94.237"/>
				<path fill="#E42483" d="M287.139,94.96c-0.052,0-0.102-0.004-0.154-0.012c-0.467-0.084-0.775-0.532-0.692-0.998l9.238-50.941
					c0.085-0.465,0.532-0.775,0.997-0.688c0.466,0.08,0.775,0.528,0.691,0.996l-9.236,50.939
					C287.908,94.673,287.547,94.96,287.139,94.96"/>
				<path fill="#E42483" d="M373.586,84.466c-0.473,0-0.857-0.383-0.857-0.857c0-13.436-8.729-13.656-9.101-13.658H307.99
					c0.357,0.966,0.23,1.918-0.072,2.709h55.662c0.268,0,6.524,0.124,6.524,10.949c0,0.475-0.386,0.857-0.86,0.857
					c-0.471,0-0.856-0.383-0.856-0.857c0-9.129-4.76-9.234-4.808-9.234h-57.164c-0.338,0-0.643-0.201-0.781-0.51
					c-0.142-0.309-0.083-0.672,0.145-0.924c0.152-0.175,1.488-1.781,0.03-3.241c-0.246-0.245-0.317-0.616-0.188-0.934
					c0.134-0.321,0.446-0.528,0.794-0.528h57.213c0.108,0,10.814,0.174,10.814,15.371C374.443,84.083,374.061,84.466,373.586,84.466
					"/>
				<path fill="#E42483" d="M363.629,98.978h-57.213c-0.348,0-0.662-0.211-0.794-0.533c-0.13-0.327-0.056-0.694,0.195-0.94
					c0.264-0.264,1.517-1.678-0.008-3.203c-0.246-0.244-0.317-0.611-0.185-0.93c0.131-0.324,0.443-0.531,0.791-0.531h57.164
					c0.187-0.004,4.808-0.212,4.808-9.232c0-0.471,0.386-0.859,0.856-0.859c0.475,0,0.858,0.389,0.858,0.859
					c0,10.822-6.255,10.947-6.522,10.947h-55.56c0.166,0.416,0.251,0.852,0.246,1.299c0,0.529-0.125,1.002-0.286,1.406h55.648
					c0.37-0.002,9.1-0.223,9.1-13.652c0-0.471,0.385-0.859,0.857-0.859c0.475,0,0.857,0.389,0.857,0.859
					C374.443,98.804,363.737,98.978,363.629,98.978"/>
				<path fill="#E42483" d="M360.739,78.388h-51.771c-0.475,0-0.86-0.385-0.86-0.859c0-0.473,0.386-0.858,0.86-0.858h51.771
					c0.474,0,0.856,0.385,0.856,0.858C361.596,78.003,361.213,78.388,360.739,78.388"/>
				<path fill="#E42483" d="M360.739,82.437h-51.771c-0.475,0-0.86-0.381-0.86-0.855c0-0.473,0.386-0.857,0.86-0.857h51.771
					c0.474,0,0.856,0.385,0.856,0.857C361.596,82.056,361.213,82.437,360.739,82.437"/>
				<path fill="#E42483" d="M360.739,86.489h-51.771c-0.475,0-0.86-0.381-0.86-0.857c0-0.473,0.386-0.857,0.86-0.857h51.771
					c0.474,0,0.856,0.385,0.856,0.857C361.596,86.108,361.213,86.489,360.739,86.489"/>
				<path fill="#E42483" d="M360.739,90.544h-51.771c-0.475,0-0.86-0.387-0.86-0.857c0-0.475,0.386-0.857,0.86-0.857h51.771
					c0.474,0,0.856,0.382,0.856,0.857C361.596,90.157,361.213,90.544,360.739,90.544"/>
				<path fill="#E42483" d="M373.586,55.231c-0.473,0-0.857-0.385-0.857-0.857c0-13.504-8.728-13.654-9.1-13.654H307.99
					c0.359,0.961,0.23,1.916-0.072,2.707h55.662c0.268,0,6.524,0.121,6.524,10.947c0,0.473-0.386,0.857-0.86,0.857
					c-0.471,0-0.856-0.385-0.856-0.857c0-9.126-4.76-9.234-4.808-9.234h-57.164c-0.338,0-0.643-0.201-0.781-0.508
					c-0.142-0.313-0.083-0.67,0.145-0.926c0.152-0.172,1.488-1.783,0.03-3.242c-0.246-0.244-0.317-0.613-0.188-0.935
					c0.134-0.319,0.446-0.528,0.794-0.528h57.213c0.108,0,10.814,0.174,10.814,15.373C374.443,54.847,374.061,55.231,373.586,55.231
					"/>
				<path fill="#E42483" d="M363.629,69.741h-57.213c-0.348,0-0.662-0.21-0.794-0.531c-0.13-0.322-0.056-0.695,0.195-0.939
					c0.264-0.262,1.517-1.675-0.008-3.199c-0.246-0.246-0.317-0.617-0.185-0.936c0.131-0.32,0.443-0.531,0.791-0.531h57.164
					c0.187-0.002,4.808-0.207,4.808-9.23c0-0.475,0.386-0.859,0.856-0.859c0.475,0,0.858,0.385,0.858,0.859
					c0,10.821-6.255,10.947-6.522,10.947h-55.56c0.166,0.42,0.251,0.852,0.246,1.303c0,0.525-0.124,0.998-0.286,1.405h55.648
					c0.37-0.002,9.1-0.227,9.1-13.655c0-0.475,0.385-0.859,0.857-0.859c0.475,0,0.857,0.385,0.857,0.859
					C374.443,69.569,363.737,69.741,363.629,69.741"/>
				<path fill="#E42483" d="M360.739,49.151h-51.771c-0.475,0-0.86-0.385-0.86-0.857s0.386-0.859,0.86-0.859h51.771
					c0.474,0,0.856,0.387,0.856,0.859S361.213,49.151,360.739,49.151"/>
				<path fill="#E42483" d="M360.739,53.206h-51.771c-0.475,0-0.86-0.387-0.86-0.856c0-0.478,0.386-0.86,0.86-0.86h51.771
					c0.474,0,0.856,0.383,0.856,0.86C361.596,52.819,361.213,53.206,360.739,53.206"/>
				<path fill="#E42483" d="M360.739,57.259h-51.771c-0.475,0-0.86-0.385-0.86-0.859c0-0.473,0.386-0.857,0.86-0.857h51.771
					c0.474,0,0.856,0.385,0.856,0.857C361.596,56.874,361.213,57.259,360.739,57.259"/>
				<path fill="#E42483" d="M360.739,61.312h-51.771c-0.475,0-0.86-0.385-0.86-0.86c0-0.473,0.386-0.857,0.86-0.857h51.771
					c0.474,0,0.856,0.384,0.856,0.857C361.596,60.927,361.213,61.312,360.739,61.312"/>
				<path fill="#E42483" d="M277.906,36.606c-0.214-0.039-0.427-0.014-0.643,0.008c-0.011,0.148-0.024,0.301-0.038,0.447
					c0.228,0.018,0.455,0.031,0.681-0.01l1.887-0.193v-0.057L277.906,36.606z"/>
				<path fill="#E42483" d="M277.677,38.519c-0.335-0.08-0.674-0.07-1.009-0.016c-0.004,0.211-0.006,0.422-0.012,0.633
					c0.342,0.053,0.681,0.055,1.021-0.021l1.877-0.262v-0.078L277.677,38.519z"/>
				<path fill="#E42483" d="M278.601,34.2c-0.337-0.082-0.675-0.066-1.011-0.016c-0.004,0.213-0.006,0.424-0.012,0.633
					c0.342,0.051,0.68,0.055,1.022-0.023l1.876-0.262v-0.076L278.601,34.2z"/>
				<path fill="#E42483" d="M280.049,32.175c-0.337-0.084-0.674-0.07-1.01-0.016c-0.002,0.211-0.006,0.424-0.012,0.631
					c0.344,0.049,0.68,0.057,1.021-0.021l1.878-0.262v-0.078L280.049,32.175z"/>
				<path fill="#E42483" d="M282.563,30.601c-0.337-0.08-0.675-0.07-1.01-0.016c-0.005,0.21-0.007,0.422-0.013,0.633
					c0.343,0.053,0.681,0.055,1.022-0.023l1.877-0.262v-0.076L282.563,30.601z"/>
				<path fill="#E42483" d="M277.475,40.503c-0.382-0.078-0.769-0.087-1.151-0.035c0.004,0.223,0.013,0.445,0.013,0.668
					c0.381,0.053,0.76,0.037,1.139-0.035l2.079-0.262v-0.076L277.475,40.503z"/>
				<path fill="#E42483" d="M277.059,42.487c-0.323-0.067-0.65-0.104-0.975-0.067c-0.007,0.241-0.011,0.493-0.02,0.729
					c0.33,0.037,0.663,0.008,0.994-0.068l1.968-0.26v-0.074L277.059,42.487z"/>
				<path fill="#E42483" d="M276.667,44.474c-0.229-0.055-0.454-0.058-0.679-0.055c-0.016,0.246-0.037,0.477-0.059,0.711
					c0.247,0.014,0.49,0,0.737-0.063l1.753-0.255v-0.079L276.667,44.474z"/>
				<path fill="#E42483" d="M275.726,47.235c-0.245-0.039-0.492-0.016-0.739,0.008c-0.011,0.148-0.026,0.301-0.043,0.445
					c0.262,0.02,0.523,0.031,0.782-0.007l2.169-0.192v-0.06L275.726,47.235z"/>
				<path fill="#E42483" d="M275.35,49.147c-0.336-0.08-0.676-0.068-1.012-0.016c-0.002,0.211-0.005,0.422-0.011,0.634
					c0.343,0.052,0.68,0.054,1.022-0.024l1.876-0.259v-0.079L275.35,49.147z"/>
				<path fill="#E42483" d="M275.146,51.13c-0.382-0.078-0.769-0.086-1.151-0.035c0.004,0.226,0.013,0.445,0.013,0.67
					c0.379,0.052,0.76,0.034,1.139-0.036l2.08-0.264v-0.074L275.146,51.13z"/>
				<path fill="#E42483" d="M274.731,53.116c-0.324-0.066-0.651-0.102-0.976-0.066c-0.008,0.24-0.011,0.488-0.02,0.729
					c0.33,0.035,0.662,0.004,0.995-0.069l1.966-0.262v-0.074L274.731,53.116z"/>
				<path fill="#E42483" d="M274.338,55.104c-0.229-0.057-0.451-0.061-0.678-0.057c-0.017,0.244-0.037,0.475-0.058,0.711
					c0.245,0.012,0.491,0,0.735-0.063l1.754-0.256v-0.078L274.338,55.104z"/>
				<path fill="#E42483" d="M301.654,41.159c-0.127-0.037-0.256-0.013-0.382,0.01c-0.009,0.146-0.014,0.301-0.024,0.446
					c0.136,0.017,0.272,0.033,0.406-0.008l1.127-0.193v-0.057L301.654,41.159z"/>
				<path fill="#E42483" d="M301.654,38.774c-0.127-0.037-0.256-0.016-0.382,0.006c-0.009,0.149-0.014,0.301-0.024,0.45
					c0.136,0.018,0.272,0.031,0.406-0.008l1.127-0.191v-0.059L301.654,38.774z"/>
				<path fill="#E42483" d="M300.526,36.851c-0.17-0.039-0.339-0.016-0.508,0.008c-0.01,0.148-0.019,0.301-0.031,0.447
					c0.179,0.018,0.356,0.031,0.539-0.008l1.487-0.193v-0.059L300.526,36.851z"/>
				<path fill="#E42483" d="M300.868,42.825c-0.288-0.08-0.575-0.068-0.859-0.013c0,0.208-0.005,0.421-0.011,0.63
					c0.292,0.049,0.577,0.053,0.87-0.022l1.595-0.263v-0.076L300.868,42.825z"/>
				<path fill="#E42483" d="M300.693,44.808c-0.326-0.076-0.653-0.084-0.978-0.035c0.004,0.227,0.008,0.445,0.008,0.672
					c0.324,0.051,0.648,0.033,0.97-0.038l1.769-0.264v-0.072L300.693,44.808z"/>
				<path fill="#E42483" d="M300.342,46.795c-0.279-0.07-0.553-0.105-0.83-0.07c-0.009,0.242-0.009,0.492-0.018,0.729
					c0.283,0.039,0.564,0.006,0.848-0.066l1.675-0.259v-0.075L300.342,46.795z"/>
				<path fill="#E42483" d="M300.009,48.78c-0.194-0.052-0.386-0.059-0.581-0.052c-0.012,0.242-0.029,0.471-0.048,0.708
					c0.208,0.014,0.415,0,0.629-0.063l1.487-0.256V49.04L300.009,48.78z"/>
				<path fill="#E42483" d="M299.326,51.54c-0.246-0.037-0.493-0.014-0.739,0.01c-0.015,0.146-0.026,0.303-0.047,0.447
					c0.267,0.018,0.526,0.029,0.786-0.01l2.174-0.193v-0.057L299.326,51.54z"/>
				<path fill="#E42483" d="M299.103,53.454c-0.356-0.082-0.716-0.07-1.072-0.018c-0.003,0.213-0.007,0.424-0.011,0.635
					c0.361,0.049,0.721,0.055,1.083-0.021l1.99-0.264V53.71L299.103,53.454z"/>
				<path fill="#E42483" d="M298.714,55.438c-0.326-0.08-0.653-0.086-0.978-0.037c0.003,0.227,0.009,0.445,0.009,0.67
					c0.323,0.053,0.648,0.037,0.969-0.035l1.769-0.266v-0.071L298.714,55.438z"/>
				<path fill="#E42483" d="M298.359,57.425c-0.276-0.07-0.551-0.105-0.828-0.07c-0.009,0.243-0.009,0.495-0.018,0.73
					c0.283,0.037,0.564,0.008,0.846-0.068l1.676-0.26v-0.074L298.359,57.425z"/>
				<path fill="#E42483" d="M298.025,59.412c-0.192-0.057-0.384-0.061-0.574-0.057c-0.019,0.244-0.032,0.477-0.049,0.712
					c0.208,0.013,0.417,0,0.623-0.063l1.49-0.255v-0.079L298.025,59.412z"/>
				<path fill="#E42483" d="M297.541,62.239c-0.174-0.037-0.352-0.014-0.523,0.01c-0.012,0.149-0.021,0.303-0.033,0.447
					c0.187,0.015,0.373,0.032,0.557-0.01l1.545-0.193v-0.057L297.541,62.239z"/>
				<path fill="#E42483" d="M297.345,64.153c-0.286-0.08-0.571-0.068-0.856-0.016c-0.002,0.213-0.002,0.422-0.011,0.635
					c0.289,0.049,0.579,0.053,0.867-0.025l1.596-0.26v-0.08L297.345,64.153z"/>
				<path fill="#E42483" d="M297.173,66.138c-0.327-0.078-0.655-0.088-0.978-0.035c0.002,0.223,0.01,0.443,0.01,0.67
					c0.322,0.051,0.646,0.033,0.968-0.037l1.768-0.262v-0.076L297.173,66.138z"/>
				<path fill="#E42483" d="M296.821,68.122c-0.279-0.066-0.556-0.102-0.834-0.066c-0.005,0.24-0.009,0.492-0.015,0.729
					c0.284,0.035,0.563,0.01,0.849-0.068l1.672-0.26v-0.074L296.821,68.122z"/>
				<path fill="#E42483" d="M296.486,70.11c-0.194-0.057-0.383-0.061-0.58-0.057c-0.013,0.244-0.028,0.479-0.046,0.713
					c0.206,0.014,0.419,0,0.626-0.064l1.486-0.255v-0.079L296.486,70.11z"/>
				<path fill="#E42483" d="M296.058,72.711c-0.183-0.035-0.372-0.012-0.556,0.008c-0.01,0.15-0.025,0.305-0.038,0.447
					c0.2,0.018,0.399,0.032,0.594-0.005l1.648-0.196v-0.057L296.058,72.711z"/>
				<path fill="#E42483" d="M295.573,74.872c-0.285-0.08-0.574-0.068-0.858-0.016c-0.002,0.213-0.005,0.422-0.006,0.635
					c0.287,0.053,0.571,0.054,0.864-0.023l1.594-0.262v-0.078L295.573,74.872z"/>
				<path fill="#E42483" d="M295.4,76.856c-0.328-0.078-0.655-0.088-0.978-0.035c0.002,0.227,0.007,0.445,0.007,0.67
					c0.324,0.051,0.649,0.038,0.971-0.035l1.767-0.264v-0.074L295.4,76.856z"/>
				<path fill="#E42483" d="M295.047,78.843c-0.277-0.066-0.553-0.102-0.832-0.066c-0.005,0.244-0.008,0.49-0.017,0.729
					c0.284,0.035,0.565,0.008,0.849-0.068l1.673-0.26v-0.074L295.047,78.843z"/>
				<path fill="#E42483" d="M294.713,80.829c-0.191-0.053-0.384-0.063-0.576-0.053c-0.016,0.24-0.032,0.471-0.051,0.709
					c0.206,0.012,0.416,0,0.627-0.063l1.492-0.258v-0.079L294.713,80.829z"/>
				<path fill="#E42483" d="M293.912,83.586c-0.207-0.037-0.42-0.011-0.626,0.011c-0.012,0.148-0.025,0.302-0.038,0.448
					c0.223,0.017,0.441,0.028,0.664-0.007l1.843-0.195v-0.059L293.912,83.586z"/>
				<path fill="#E42483" d="M293.593,85.501c-0.286-0.081-0.573-0.068-0.857-0.016c-0.004,0.214-0.006,0.424-0.008,0.635
					c0.288,0.047,0.575,0.055,0.865-0.023l1.595-0.262v-0.078L293.593,85.501z"/>
				<path fill="#E42483" d="M293.42,87.485c-0.328-0.078-0.653-0.086-0.979-0.035c0.003,0.227,0.009,0.445,0.009,0.67
					c0.325,0.05,0.647,0.037,0.97-0.037l1.768-0.262v-0.074L293.42,87.485z"/>
				<path fill="#E42483" d="M293.066,89.472c-0.278-0.066-0.553-0.102-0.829-0.066c-0.007,0.242-0.007,0.493-0.017,0.73
					c0.283,0.035,0.563,0.006,0.846-0.069l1.674-0.261v-0.074L293.066,89.472z"/>
				<path fill="#E42483" d="M292.878,91.468c-0.242-0.049-0.478-0.049-0.721-0.033c-0.009,0.242-0.021,0.477-0.043,0.713
					c0.259,0,0.521-0.016,0.779-0.088l1.847-0.316v-0.076L292.878,91.468z"/>
				<path fill="#E42483" d="M292.36,94.286c-0.209-0.035-0.422-0.012-0.632,0.009c-0.014,0.149-0.024,0.303-0.038,0.45
					c0.226,0.016,0.448,0.029,0.67-0.008l1.861-0.197v-0.053L292.36,94.286z"/>
			</g>
			<path fill="#E42483" d="M267.31,91.894c-0.335-0.078-0.673-0.068-1.011-0.014c-0.003,0.211-0.005,0.422-0.01,0.633
				c0.342,0.049,0.68,0.05,1.021-0.024l1.878-0.259v-0.081L267.31,91.894z"/>
		</g>
		<g>
			<path fill="#E42483" d="M243.102,4.412c0.334,0.336,0.332,0.876-0.002,1.212L178.271,70.45c-0.335,0.333-0.877,0.336-1.212,0.002
				l-4.163-4.164c-0.334-0.334-0.334-0.879,0.001-1.213l64.828-64.826c0.334-0.333,0.879-0.332,1.213,0L243.102,4.412
				 M174.717,65.683l2.95,2.947l63.615-63.611l-2.95-2.949L174.717,65.683z"/>
			<path fill="#E42483" d="M184.238,80.716c0.336,0.338,0.334,0.879,0.002,1.215l-8.903,8.902c-0.259,0.258-0.651,0.324-0.981,0.163
				c-0.329-0.157-0.521-0.51-0.476-0.879c0.022-0.196,0.531-4.898-4.245-9.671c-2.053-2.053-4.798-3.821-8.164-5.249
				c-2.93-1.244-5.304-2.764-7.053-4.512c-8.141-8.141-0.481-18.693-0.403-18.801c0.146-0.201,0.375-0.326,0.623-0.344
				c0.251-0.02,0.494,0.07,0.671,0.248L184.238,80.716 M154.844,53.749c-1.482,2.467-5.071,9.863,0.788,15.723
				c1.591,1.592,3.782,2.988,6.511,4.145c3.567,1.516,6.496,3.406,8.706,5.614c3.414,3.414,4.414,6.853,4.682,8.984l6.89-6.889
				L154.844,53.749"/>
			<path fill="#E42483" d="M192.133,88.61c0.333,0.334,0.334,0.881,0,1.215l-8.902,8.9c-0.336,0.336-0.88,0.336-1.214,0
				l-4.452-4.451c-0.335-0.336-0.335-0.879,0-1.215l8.902-8.9c0.334-0.336,0.878-0.334,1.213,0L192.133,88.61 M179.383,93.669
				l3.238,3.238l7.689-7.693l-3.237-3.236L179.383,93.669z"/>
			<path fill="#E42483" d="M152.765,65.146c-0.47-0.42-0.901-0.88-1.331-1.344c0.076-0.133,0.166-0.26,0.236-0.396
				c0.485,0.461,0.968,0.924,1.412,1.424l3.792,4.066l-0.04,0.041L152.765,65.146z"/>
			<path fill="#E42483" d="M154.039,63.714c-1.053-0.939-2.047-1.948-3.007-2.986c0.141-0.157,0.285-0.311,0.417-0.477
				c1.046,0.973,2.057,1.979,3.012,3.043l5.392,5.762l-0.055,0.055L154.039,63.714z"/>
			<path fill="#E42483" d="M154.837,61.708c-1.189-1.082-2.337-2.217-3.437-3.389c0.169-0.15,0.349-0.279,0.511-0.436
				c1.161,1.088,2.278,2.225,3.35,3.402l5.997,6.365l-0.054,0.053L154.837,61.708z"/>
			<path fill="#E42483" d="M155.012,59.073c-1.017-0.922-2.005-1.863-2.949-2.854c0.152-0.191,0.323-0.373,0.46-0.572
				c1.013,0.961,1.978,1.965,2.909,3.008l5.659,6.023l-0.053,0.053L155.012,59.073z"/>
			<path fill="#E42483" d="M155.249,56.5c-0.71-0.633-1.388-1.3-2.054-1.975c0.12-0.223,0.227-0.447,0.327-0.675
				c0.739,0.717,1.458,1.454,2.145,2.231l5.024,5.385l-0.056,0.055L155.249,56.5z"/>
			<path fill="#E42483" d="M158.311,56.655c-1.483-1.352-2.892-2.773-4.248-4.248c0.063-0.234,0.079-0.477,0.125-0.712
				c1.591,1.439,3.121,2.935,4.566,4.517l6.777,7.168l-0.058,0.055L158.311,56.655z"/>
			<path fill="#E42483" d="M179.967,92.35c-0.169-0.118-0.294-0.278-0.422-0.434c0.098-0.114,0.201-0.229,0.289-0.345
				c0.166,0.14,0.326,0.281,0.449,0.461l1.118,1.391l-0.042,0.041L179.967,92.35z"/>
			<path fill="#E42483" d="M181.834,91.509c-0.374-0.26-0.689-0.592-0.968-0.947c0.147-0.15,0.295-0.301,0.437-0.458
				c0.358,0.285,0.684,0.605,0.952,0.982l1.596,1.971l-0.053,0.053L181.834,91.509z"/>
			<path fill="#E42483" d="M183.359,90.231c-0.417-0.311-0.789-0.669-1.114-1.068c0.162-0.155,0.325-0.303,0.486-0.461
				c0.395,0.322,0.745,0.693,1.052,1.105l1.789,2.158l-0.052,0.053L183.359,90.231z"/>
			<path fill="#E42483" d="M184.619,88.681c-0.359-0.262-0.688-0.545-0.977-0.879c0.165-0.178,0.341-0.355,0.499-0.535
				c0.341,0.291,0.639,0.627,0.896,0.994l1.685,2.051l-0.053,0.052L184.619,88.681z"/>
			<path fill="#E42483" d="M185.778,87.026c-0.255-0.174-0.473-0.385-0.684-0.606c0.155-0.183,0.302-0.369,0.447-0.554
				c0.242,0.223,0.466,0.465,0.654,0.744l1.481,1.844l-0.053,0.055L185.778,87.026z"/>
			<path fill="#E42483" d="M175.194,64.153c-0.262-0.192-0.478-0.436-0.689-0.675c0.176-0.11,0.36-0.241,0.542-0.366
				c0.204,0.191,0.408,0.385,0.576,0.613l1.742,2.111l-0.055,0.055L175.194,64.153z"/>
			<path fill="#E42483" d="M176.807,62.675c-0.29-0.207-0.52-0.479-0.748-0.746c0.17-0.104,0.346-0.211,0.527-0.327
				c0.233,0.199,0.465,0.397,0.646,0.648l1.74,2.112l-0.054,0.053L176.807,62.675z"/>
			<path fill="#E42483" d="M178.358,61.142c-0.294-0.215-0.524-0.488-0.751-0.763c0.154-0.117,0.309-0.245,0.468-0.364
				c0.252,0.217,0.509,0.426,0.709,0.701l1.743,2.113l-0.056,0.055L178.358,61.142z"/>
			<path fill="#E42483" d="M180.1,59.798c-0.369-0.267-0.674-0.603-0.946-0.965c0.146-0.125,0.289-0.252,0.435-0.383
				c0.35,0.271,0.679,0.563,0.937,0.922l1.743,2.113l-0.056,0.055L180.1,59.798z"/>
			<path fill="#E42483" d="M182.027,58.636c-0.539-0.357-0.957-0.83-1.206-1.469c0.054-0.055,0.109-0.107,0.162-0.16
				c0.64,0.252,1.114,0.668,1.47,1.205l1.329,1.702l-0.056,0.053L182.027,58.636z"/>
			<path fill="#E42483" d="M183.453,56.979c-0.487-0.326-0.865-0.768-1.122-1.326c0.087-0.067,0.171-0.133,0.256-0.201
				c0.542,0.256,0.975,0.625,1.292,1.104l1.329,1.701l-0.054,0.053L183.453,56.979z"/>
			<path fill="#E42483" d="M185.045,55.483c-0.502-0.35-0.89-0.809-1.188-1.355c0.094-0.086,0.189-0.159,0.282-0.243
				c0.534,0.293,0.988,0.676,1.333,1.17l1.509,1.885l-0.053,0.053L185.045,55.483z"/>
			<path fill="#E42483" d="M186.542,53.894c-0.48-0.336-0.86-0.773-1.151-1.293c0.094-0.094,0.187-0.191,0.281-0.287
				c0.521,0.294,0.963,0.673,1.295,1.156l1.513,1.883l-0.055,0.053L186.542,53.894z"/>
			<path fill="#E42483" d="M187.789,51.56c-0.262-0.189-0.479-0.436-0.69-0.678c0.177-0.109,0.36-0.238,0.541-0.363
				c0.206,0.191,0.41,0.383,0.577,0.613l1.742,2.111l-0.055,0.055L187.789,51.56z"/>
			<path fill="#E42483" d="M189.4,50.081c-0.289-0.209-0.52-0.479-0.747-0.746c0.171-0.104,0.346-0.213,0.526-0.328
				c0.233,0.201,0.467,0.398,0.647,0.65l1.739,2.109l-0.054,0.057L189.4,50.081z"/>
			<path fill="#E42483" d="M190.953,48.545c-0.297-0.21-0.524-0.486-0.752-0.761c0.154-0.117,0.31-0.244,0.468-0.364
				c0.253,0.215,0.509,0.429,0.71,0.7l1.742,2.115l-0.055,0.053L190.953,48.545z"/>
			<path fill="#E42483" d="M192.693,47.204c-0.368-0.268-0.672-0.604-0.945-0.967c0.146-0.125,0.288-0.252,0.434-0.381
				c0.352,0.27,0.68,0.564,0.937,0.922l1.744,2.111l-0.057,0.055L192.693,47.204z"/>
			<path fill="#E42483" d="M194.62,46.044c-0.538-0.359-0.956-0.833-1.206-1.473c0.056-0.055,0.109-0.105,0.165-0.16
				c0.638,0.253,1.112,0.671,1.468,1.207l1.329,1.701l-0.055,0.053L194.62,46.044z"/>
			<path fill="#E42483" d="M196.048,44.388c-0.487-0.33-0.865-0.77-1.121-1.33c0.086-0.066,0.17-0.128,0.255-0.199
				c0.54,0.256,0.976,0.624,1.293,1.103l1.328,1.7l-0.055,0.054L196.048,44.388z"/>
			<path fill="#E42483" d="M197.638,42.89c-0.5-0.352-0.888-0.809-1.187-1.357c0.094-0.084,0.188-0.158,0.281-0.242
				c0.539,0.293,0.988,0.678,1.334,1.171l1.509,1.884l-0.054,0.053L197.638,42.89z"/>
			<path fill="#E42483" d="M199.137,41.3c-0.481-0.336-0.859-0.775-1.152-1.295c0.096-0.093,0.187-0.191,0.281-0.285
				c0.521,0.295,0.963,0.672,1.297,1.154l1.512,1.883l-0.055,0.055L199.137,41.3z"/>
			<path fill="#E42483" d="M200.384,38.964c-0.263-0.191-0.479-0.435-0.69-0.676c0.176-0.107,0.361-0.238,0.542-0.363
				c0.204,0.191,0.409,0.383,0.576,0.611l1.743,2.111l-0.055,0.057L200.384,38.964z"/>
			<path fill="#E42483" d="M201.996,37.489c-0.292-0.213-0.521-0.482-0.749-0.75c0.172-0.105,0.346-0.21,0.528-0.326
				c0.232,0.199,0.465,0.396,0.646,0.649l1.74,2.111l-0.054,0.057L201.996,37.489z"/>
			<path fill="#E42483" d="M203.549,35.952c-0.296-0.215-0.525-0.488-0.753-0.764c0.154-0.117,0.309-0.242,0.468-0.363
				c0.252,0.217,0.51,0.43,0.709,0.701l1.742,2.113l-0.054,0.055L203.549,35.952z"/>
			<path fill="#E42483" d="M205.289,34.608c-0.369-0.266-0.674-0.605-0.947-0.965c0.146-0.125,0.289-0.252,0.434-0.381
				c0.352,0.268,0.679,0.564,0.938,0.92l1.743,2.115l-0.055,0.053L205.289,34.608z"/>
			<path fill="#E42483" d="M207.217,33.448c-0.54-0.359-0.958-0.832-1.207-1.475c0.054-0.051,0.108-0.102,0.163-0.158
				c0.638,0.254,1.112,0.672,1.469,1.209l1.329,1.699l-0.055,0.055L207.217,33.448z"/>
			<path fill="#E42483" d="M208.644,31.792c-0.489-0.328-0.866-0.77-1.124-1.328c0.087-0.066,0.172-0.131,0.256-0.198
				c0.54,0.255,0.976,0.624,1.293,1.101l1.328,1.7l-0.054,0.054L208.644,31.792z"/>
			<path fill="#E42483" d="M210.233,30.294c-0.501-0.349-0.89-0.809-1.188-1.355c0.094-0.086,0.189-0.158,0.281-0.244
				c0.537,0.294,0.989,0.679,1.334,1.171l1.508,1.885l-0.052,0.053L210.233,30.294z"/>
			<path fill="#E42483" d="M211.73,28.706c-0.479-0.336-0.861-0.773-1.151-1.294c0.094-0.094,0.188-0.194,0.281-0.286
				c0.521,0.293,0.962,0.672,1.296,1.154l1.512,1.881l-0.055,0.054L211.73,28.706z"/>
			<path fill="#E42483" d="M212.979,26.37c-0.263-0.191-0.48-0.434-0.692-0.674c0.177-0.111,0.361-0.242,0.543-0.367
				c0.204,0.191,0.408,0.387,0.576,0.613l1.742,2.113l-0.055,0.055L212.979,26.37z"/>
			<path fill="#E42483" d="M214.59,24.892c-0.29-0.209-0.52-0.479-0.748-0.748c0.172-0.102,0.346-0.211,0.527-0.326
				c0.233,0.201,0.466,0.398,0.646,0.65l1.74,2.112l-0.054,0.054L214.59,24.892z"/>
			<path fill="#E42483" d="M216.143,23.356c-0.295-0.213-0.523-0.486-0.752-0.761c0.154-0.116,0.31-0.245,0.467-0.365
				c0.253,0.217,0.511,0.432,0.71,0.703l1.743,2.113l-0.055,0.053L216.143,23.356z"/>
			<path fill="#E42483" d="M217.883,22.015c-0.367-0.267-0.673-0.603-0.945-0.967c0.145-0.123,0.288-0.25,0.433-0.381
				c0.351,0.271,0.681,0.564,0.938,0.922l1.743,2.113l-0.055,0.053L217.883,22.015z"/>
			<path fill="#E42483" d="M219.81,20.854c-0.539-0.359-0.956-0.83-1.207-1.473c0.057-0.055,0.11-0.103,0.165-0.16
				c0.639,0.254,1.113,0.672,1.467,1.208l1.33,1.701l-0.055,0.053L219.81,20.854z"/>
			<path fill="#E42483" d="M221.236,19.196c-0.488-0.326-0.865-0.767-1.121-1.328c0.086-0.066,0.17-0.131,0.254-0.199
				c0.542,0.256,0.976,0.625,1.293,1.104l1.33,1.699l-0.056,0.057L221.236,19.196z"/>
			<path fill="#E42483" d="M222.827,17.7c-0.499-0.35-0.89-0.807-1.187-1.355c0.094-0.086,0.188-0.161,0.281-0.243
				c0.536,0.293,0.987,0.676,1.333,1.17l1.509,1.883l-0.053,0.053L222.827,17.7z"/>
			<path fill="#E42483" d="M224.326,16.11c-0.481-0.336-0.86-0.775-1.153-1.293c0.095-0.096,0.187-0.193,0.282-0.287
				c0.522,0.292,0.962,0.673,1.295,1.154l1.512,1.885l-0.054,0.053L224.326,16.11z"/>
			<path fill="#E42483" d="M225.573,13.774c-0.264-0.191-0.479-0.434-0.69-0.674c0.174-0.111,0.36-0.242,0.542-0.365
				c0.203,0.191,0.407,0.385,0.576,0.611l1.742,2.115l-0.055,0.053L225.573,13.774z"/>
			<path fill="#E42483" d="M227.184,12.3c-0.289-0.211-0.52-0.482-0.748-0.75c0.172-0.103,0.347-0.209,0.529-0.326
				c0.231,0.201,0.465,0.396,0.645,0.65l1.741,2.109l-0.055,0.057L227.184,12.3z"/>
			<path fill="#E42483" d="M228.736,10.763c-0.293-0.215-0.524-0.486-0.752-0.762c0.154-0.117,0.31-0.244,0.468-0.363
				c0.253,0.215,0.511,0.43,0.71,0.699l1.741,2.114l-0.054,0.055L228.736,10.763z"/>
			<path fill="#E42483" d="M230.478,9.419c-0.368-0.266-0.672-0.602-0.946-0.965c0.146-0.122,0.288-0.25,0.434-0.381
				c0.351,0.272,0.68,0.564,0.938,0.922l1.742,2.113l-0.055,0.053L230.478,9.419z"/>
			<path fill="#E42483" d="M232.404,8.261c-0.538-0.358-0.955-0.832-1.207-1.471c0.056-0.055,0.11-0.105,0.164-0.16
				c0.639,0.252,1.113,0.668,1.468,1.207l1.331,1.7l-0.055,0.053L232.404,8.261z"/>
			<path fill="#E42483" d="M233.832,6.606c-0.489-0.328-0.866-0.771-1.123-1.328c0.087-0.067,0.172-0.133,0.256-0.199
				c0.539,0.255,0.975,0.625,1.293,1.102l1.328,1.699l-0.055,0.055L233.832,6.606z"/>
			<path fill="#E42483" d="M235.422,5.108c-0.501-0.35-0.89-0.809-1.187-1.357c0.093-0.084,0.187-0.156,0.279-0.242
				c0.538,0.295,0.989,0.678,1.334,1.172l1.508,1.885l-0.052,0.05L235.422,5.108z"/>
			<path fill="#E42483" d="M236.92,3.517c-0.48-0.334-0.861-0.771-1.152-1.291c0.095-0.096,0.188-0.193,0.282-0.289
				c0.521,0.297,0.962,0.676,1.294,1.159l1.514,1.88l-0.055,0.057L236.92,3.517z"/>
		</g>
		<g>
			<path fill="#E42483" d="M69.908,98.978h-0.012H22.663c-0.276,0-0.541-0.127-0.715-0.348c-0.175-0.218-0.237-0.504-0.175-0.777
				l3.692-15.697c0.097-0.412,0.468-0.705,0.89-0.705H66.28c0.421,0,0.792,0.293,0.888,0.709l3.586,15.559
				c0.042,0.105,0.068,0.223,0.068,0.346C70.823,98.567,70.413,98.978,69.908,98.978 M23.815,97.147H68.75l-3.198-13.869H27.078
				L23.815,97.147z"/>
			<path fill="#E42483" d="M66.277,78.255H26.279c-0.503,0-0.913-0.408-0.913-0.912c0-12.105-3.176-32.418-24.453-32.418
				C0.412,44.925,0,44.515,0,44.013V32.085c0-0.508,0.412-0.916,0.914-0.916h121.012c0.506,0,0.915,0.408,0.915,0.916v11.928
				c0,0.501-0.409,0.912-0.915,0.912c-19.619,0-45.501,11.492-54.812,32.783C66.969,78.042,66.642,78.255,66.277,78.255
				 M27.188,76.429h38.495c9.675-21.329,35.416-32.977,55.327-33.323V32.997H1.829V43.11c8.531,0.226,15.064,3.641,19.429,10.155
				C25.024,58.884,27.066,66.878,27.188,76.429"/>
			<path fill="#E42483" d="M121.963,41.454c-3.525-0.098-14.576-0.066-18.105,0.314v0.081c3.529,0.382,14.58,0.409,18.105,0.314
				V41.454z"/>
			<path fill="#E42483" d="M121.963,34.425c-1.89,0.033-3.776,0.139-5.671,0.369v0.086c1.895,0.223,3.781,0.332,5.671,0.363V34.425z
				"/>
			<path fill="#E42483" d="M121.963,36.812c-1.89,0.054-7.165,0.128-9.054,0.308v0.084c1.889,0.182,7.164,0.25,9.054,0.303V36.812z"
				/>
			<path fill="#E42483" d="M121.963,39.14c-1.89,0.053-11.258,0.123-13.148,0.303v0.084c1.89,0.18,11.259,0.248,13.148,0.305V39.14z
				"/>
			<path fill="#E42483" d="M9.244,34.503c-2.871-0.127-5.738-0.08-8.607,0.146c0.018,0.123,0.012,0.246,0.027,0.373
				c2.862,0.223,5.719,0.275,8.581,0.143l10.825-0.289v-0.082L9.244,34.503z"/>
			<path fill="#E42483" d="M12.199,36.827C8.389,36.69,4.581,36.741,0.775,37c-0.003,0.103-0.023,0.212-0.028,0.324
				c3.815,0.252,7.634,0.303,11.453,0.174l13.783-0.295v-0.086L12.199,36.827z"/>
			<path fill="#E42483" d="M12.199,39.151c-3.84-0.131-7.678-0.084-11.515,0.176c0.009,0.105,0.015,0.211,0.026,0.316
				c3.831,0.256,7.659,0.307,11.489,0.174l13.783-0.291v-0.084L12.199,39.151z"/>
			<path fill="#E42483" d="M10.569,41.476c-3.282-0.129-6.558-0.076-9.842,0.162c-0.005,0.113-0.017,0.227-0.028,0.342
				c3.289,0.24,6.578,0.293,9.87,0.162L22.72,41.85v-0.081L10.569,41.476z"/>
			<path fill="#E42483" d="M27.821,84.317c-0.937-0.055-1.874-0.023-2.809,0.012c-0.055,0.223-0.099,0.451-0.167,0.668
				c0.991,0.023,1.984,0.043,2.976-0.014l8.251-0.289V84.61L27.821,84.317z"/>
			<path fill="#E42483" d="M30.074,86.542c-1.88-0.086-3.761-0.074-5.643-0.016c-0.02,0.236-0.028,0.475-0.059,0.711
				c1.899,0.058,3.803,0.061,5.702-0.026l10.503-0.294v-0.088L30.074,86.542z"/>
			<path fill="#E42483" d="M30.074,88.769c-1.935-0.087-3.868-0.096-5.799-0.039c0.017,0.252,0.06,0.494,0.06,0.752
				c1.916,0.054,3.827,0.04,5.739-0.046l10.503-0.291v-0.084L30.074,88.769z"/>
			<path fill="#E42483" d="M28.832,90.993c-1.534-0.076-3.065-0.113-4.6-0.076c-0.029,0.273-0.041,0.547-0.086,0.818
				c1.561,0.041,3.125,0.006,4.686-0.074l9.263-0.293v-0.082L28.832,90.993z"/>
			<path fill="#E42483" d="M26.979,93.22c-1.063-0.061-2.13-0.063-3.194-0.061c-0.082,0.271-0.175,0.533-0.274,0.797
				c1.154,0.012,2.311,0,3.468-0.07l8.252-0.289v-0.084L26.979,93.22z"/>
			<path fill="#E42483" d="M29.232,95.447c-2.135-0.102-4.267-0.088-6.402,0c-0.128,0.224-0.3,0.419-0.441,0.633
				c2.281,0.111,4.562,0.138,6.843,0.035l10.504-0.295v-0.086L29.232,95.447z"/>
			<path fill="#E42483" d="M24.677,44.173L14.264,44.45c-3.47,0.156-6.944,0.143-10.413-0.277v-0.084
				c3.469-0.418,6.943-0.43,10.413-0.279l10.413,0.279V44.173z"/>
			<path fill="#E42483" d="M19.239,46.138c-3.368-0.148-6.738-0.126-10.109,0.26c0.781,0.033,1.528,0.111,2.217,0.275
				c2.631,0.174,5.261,0.223,7.892,0.11l10.413-0.282V46.42L19.239,46.138z"/>
			<path fill="#E42483" d="M19.239,48.461c-1.375-0.06-2.746-0.066-4.121-0.041c0.278,0.211,0.503,0.467,0.753,0.708
				c1.122,0.003,2.244,0.029,3.368-0.024l10.413-0.279v-0.082L19.239,48.461z"/>
			<path fill="#E42483" d="M20.209,50.786c-0.995-0.047-1.99-0.041-2.984-0.047c0.16,0.244,0.348,0.469,0.487,0.721
				c0.833,0,1.664,0,2.498-0.033l10.413-0.279v-0.08L20.209,50.786z"/>
			<path fill="#E42483" d="M22.72,53.11c-1.228-0.057-2.46-0.035-3.688-0.015c0.178,0.219,0.322,0.455,0.477,0.684
				c1.073,0.009,2.142,0.019,3.212-0.026l10.413-0.281v-0.08L22.72,53.11z"/>
			<path fill="#E42483" d="M24.679,55.433c-1.354-0.059-2.703-0.027-4.054,0c0.197,0.209,0.378,0.42,0.555,0.647
				c1.167,0.025,2.332,0.052,3.499-0.004l10.412-0.28v-0.082L24.679,55.433z"/>
			<path fill="#E42483" d="M26.354,57.761c-1.364-0.061-2.726-0.028-4.094,0.007c0.101,0.205,0.189,0.416,0.277,0.627
				c1.272,0.027,2.544,0.061,3.816,0.006l10.413-0.279V58.04L26.354,57.761z"/>
			<path fill="#E42483" d="M28.296,60.083c-1.723-0.076-3.444-0.051-5.171,0.016c0.053,0.203,0.112,0.406,0.158,0.613
				c1.67,0.061,3.34,0.086,5.013,0.012l10.414-0.279v-0.081L28.296,60.083z"/>
			<path fill="#E42483" d="M30.756,62.412c-2.415-0.139-4.832-0.096-7.245,0.199c0.003,0.082,0.018,0.16,0.018,0.242
				c2.412,0.291,4.816,0.334,7.227,0.197l8.187-0.279v-0.08L30.756,62.412z"/>
			<path fill="#E42483" d="M30.756,64.733c-2.208-0.123-4.415-0.074-6.622,0.154c0.049,0.113,0.107,0.227,0.153,0.342
				c2.156,0.217,4.311,0.266,6.468,0.142l8.187-0.277v-0.084L30.756,64.733z"/>
			<path fill="#E42483" d="M31.732,67.06c-2.291-0.113-4.583-0.063-6.872,0.127c0.025,0.133,0.075,0.26,0.096,0.395
				c2.257,0.182,4.515,0.234,6.775,0.121l9.163-0.283v-0.078L31.732,67.06z"/>
			<path fill="#E42483" d="M31.732,69.384c-2.204-0.109-4.409-0.063-6.616,0.107c0.002,0.143-0.005,0.285-0.012,0.428
				c2.21,0.17,4.418,0.217,6.628,0.105l9.163-0.279v-0.083L31.732,69.384z"/>
			<path fill="#E42483" d="M32.848,71.71c-2.577-0.117-5.155-0.066-7.729,0.117c0.034,0.137,0.069,0.275,0.102,0.41
				c2.544,0.179,5.085,0.224,7.627,0.113l10.281-0.279v-0.084L32.848,71.71z"/>
			<path fill="#E42483" d="M32.848,74.034c-2.447-0.114-4.885-0.063-7.328,0.1c0.009,0.145,0.028,0.291,0.034,0.439
				c2.432,0.162,4.863,0.207,7.294,0.102l10.281-0.279v-0.083L32.848,74.034z"/>
			<path fill="#E42483" d="M100.079,46.779l6.362-0.17c0.634-0.1,1.272-0.186,1.91-0.25l-8.271-0.225
				c-3.471-0.15-6.939-0.141-10.413,0.285v0.078C93.14,46.919,96.608,46.931,100.079,46.779"/>
			<path fill="#E42483" d="M96.354,49.101l2.618-0.068c0.33-0.172,0.668-0.316,1.005-0.475l-3.623-0.098
				c-3.47-0.154-6.94-0.145-10.414,0.279v0.082C89.414,49.241,92.884,49.255,96.354,49.101"/>
			<path fill="#E42483" d="M91.345,51.423l1.801-0.047c0.111-0.053,0.215-0.117,0.33-0.168c0.282-0.125,0.544-0.234,0.812-0.345
				l-2.942-0.079c-3.47-0.156-6.942-0.145-10.413,0.279v0.08C84.402,51.567,87.875,51.577,91.345,51.423"/>
			<path fill="#E42483" d="M86.895,53.751l1.973-0.052c0.277-0.175,0.547-0.354,0.824-0.518l-2.797-0.075
				c-3.468-0.152-6.942-0.141-10.414,0.281v0.082C79.952,53.892,83.426,53.901,86.895,53.751"/>
			<path fill="#E42483" d="M82.273,56.071l3.094-0.084c0.217-0.152,0.438-0.303,0.659-0.453l-3.753-0.102
				c-3.474-0.156-6.941-0.145-10.417,0.275v0.086C75.332,56.21,78.8,56.228,82.273,56.071"/>
			<path fill="#E42483" d="M82.078,58.271l0.537-0.373l-5.212-0.141c-3.472-0.156-6.942-0.142-10.414,0.281v0.08
				c3.471,0.422,6.942,0.436,10.414,0.28L82.078,58.271z"/>
			<path fill="#E42483" d="M79.476,60.239l-6.162-0.16c-4.216-0.155-8.433-0.143-12.649,0.279v0.084
				c4.216,0.422,8.433,0.436,12.649,0.279l5.764-0.146C79.202,60.452,79.345,60.353,79.476,60.239"/>
			<path fill="#E42483" d="M76.93,62.653l-6.044-0.246c-2.733-0.156-5.462-0.142-8.191,0.277v0.084
				c2.729,0.42,5.458,0.434,8.191,0.279l5.913-0.244C76.84,62.753,76.889,62.706,76.93,62.653"/>
			<path fill="#E42483" d="M75.509,64.89l-3.275-0.16c-2.73-0.153-5.46-0.141-8.186,0.279v0.082
				c2.726,0.422,5.455,0.434,8.186,0.279l3.106-0.156C75.384,65.103,75.459,65.001,75.509,64.89"/>
			<path fill="#E42483" d="M120.655,44.003l-9.271-0.193c-4.596-0.15-9.188-0.139-13.78,0.283v0.08
				c4.592,0.42,9.184,0.434,13.78,0.285l8.665-0.182C120.249,44.179,120.452,44.086,120.655,44.003"/>
			<path fill="#E42483" d="M66.358,84.317c-1.207,0.018-2.41,0.084-3.62,0.297v0.072c1.263,0.225,2.522,0.287,3.783,0.293
				L66.358,84.317z"/>
			<path fill="#E42483" d="M64.54,88.416c0.966,0.194,1.931,0.269,2.897,0.298l-0.161-0.654c-0.912,0.036-1.825,0.102-2.736,0.283
				V88.416z"/>
			<path fill="#E42483" d="M63.449,90.28c1.483,0.233,2.964,0.287,4.443,0.291l-0.163-0.664c-1.426,0.012-2.854,0.072-4.281,0.295
				V90.28z"/>
			<path fill="#E42483" d="M68.345,92.413l-0.152-0.618c-1.816-0.076-3.636-0.046-5.452,0.274v0.072
				C64.608,92.474,66.475,92.497,68.345,92.413"/>
			<path fill="#E42483" d="M69.101,95.496c-1.334,0.021-2.666,0.089-4,0.298v0.076c1.389,0.216,2.777,0.283,4.164,0.299
				L69.101,95.496z"/>
			<path fill="#E42483" d="M68.646,93.644c-1.367-0.025-2.735,0.014-4.106,0.289v0.074c1.424,0.283,2.842,0.318,4.264,0.283
				L68.646,93.644z"/>
			<path fill="#E42483" d="M66.818,86.188c-1.362,0-2.72,0.051-4.08,0.291v0.074c1.415,0.25,2.827,0.299,4.237,0.287L66.818,86.188z
				"/>
			<path fill="#E42483" d="M68.661,72.029c-1.424,0.044-5.816,0.125-7.239,0.3v0.084c1.423,0.172,5.814,0.254,7.239,0.298V72.029z"
				/>
			<path fill="#E42483" d="M67.447,74.05c-1.635,0.049-7.233,0.125-8.869,0.301v0.082c1.636,0.174,7.234,0.256,8.869,0.303V74.05z"
				/>
			<path fill="#E42483" d="M69.996,69.319c-1.698,0.02-4.714,0.11-6.415,0.342v0.083c1.7,0.233,4.717,0.322,6.415,0.346V69.319z"/>
			<path fill="#E42483" d="M72.461,67.045c-2.804-0.111-3.401-0.093-6.206,0.295v0.078c2.805,0.389,3.402,0.408,6.206,0.295V67.045z
				"/>
		</g>
	</g>
</g>
</svg>
